<svg width="167" height="159" viewBox="0 0 167 159" fill="none" xmlns="http://www.w3.org/2000/svg">
<path d="M86 103.004C86 103.004 122.5 86.0044 139 65.5044C155.5 45.0044 167 1.50437 164 2.00437C161 2.50437 152.508 3.53658 138.107 7.50437M86 103.004L79 96.2544M86 103.004C86 103.004 83.9999 125.504 86 127.004C88 128.504 111.5 106.004 114.5 100.504C117.5 95.0044 116.257 85.5044 116.257 85.5044M66.5 83.2544L72 89.5044L79 96.2544M66.5 83.2544L61 77.0044C61 77.0044 61.321 76.0996 61.9706 74.5044M66.5 83.2544C66.5 83.2544 53.5 89.0044 54 91.0044C54.5 93.0044 67 108.504 69.5 107.504C72 106.504 79 96.2544 79 96.2544M61.9706 74.5044C61.9706 74.5044 34 77.0044 35.5 74.5044C37 72.0044 58 49.0044 63.5 47.0044C69 45.0044 77.0963 47.0044 77.0963 47.0044M61.9706 74.5044C63.936 69.678 68.9089 58.5319 77.0963 47.0044M77.0963 47.0044C82.0425 40.0404 88.1618 32.9374 95.5 27.0044C107.124 17.6059 124.01 11.3883 138.107 7.50437M138.107 7.50437L158 27.0044" stroke="#F9C319" stroke-width="4"/>
<circle cx="128" cy="37.0044" r="9.5" stroke="#F9C319" stroke-width="4"/>
<path d="M15 127.504L37.5 105.504" stroke="#F9C319" stroke-width="4" stroke-linecap="round"/>
<path d="M2 156.504L51.5 108.504" stroke="#F9C319" stroke-width="4" stroke-linecap="round"/>
<path d="M24 151.004L53.5 122.504" stroke="#F9C319" stroke-width="4" stroke-linecap="round"/>
</svg>
